<svg width="194" height="79" viewBox="0 0 194 79" fill="none" xmlns="http://www.w3.org/2000/svg">
<path fill-rule="evenodd" clip-rule="evenodd" d="M45.3159 63.0061H58.7249L34.8149 0H23.8292L0 63.0061H13.409L18.4979 49.0317H40.1462L45.3159 63.0061ZM35.865 37.2382H22.7791L29.3221 19.3865L35.865 37.2382ZM103.942 31.6646C102.731 28.9182 101.115 26.4949 99.015 24.3139C96.834 22.2137 94.4107 20.5982 91.6643 19.3865C88.8371 18.1749 85.8484 17.6094 82.698 17.6094C79.6285 17.6094 76.559 18.1749 73.7318 19.3865C70.9854 20.5982 68.5621 22.2137 66.3811 24.3139C64.2809 26.4141 62.6653 28.9182 61.4537 31.6646C60.3228 34.4918 59.6766 37.4806 59.6766 40.6309V74.9611L71.7931 79V60.9059C72.4394 61.229 73.0856 61.5522 73.7318 61.7945C76.559 63.0061 79.6285 63.6524 82.698 63.6524C85.7676 63.6524 88.8371 63.0061 91.6643 61.7945C94.4107 60.6636 96.834 59.0481 99.015 56.8671C101.115 54.7669 102.731 52.3436 103.942 49.5972C105.154 46.77 105.719 43.7004 105.719 40.6309C105.719 37.4806 105.154 34.4918 103.942 31.6646ZM82.698 51.5358C76.7205 51.5358 71.7931 46.6084 71.7931 40.6309C71.7931 34.6534 76.7205 29.726 82.698 29.726C88.6755 29.726 93.603 34.6534 93.603 40.6309C93.603 46.6084 88.6755 51.5358 82.698 51.5358ZM137.811 61.3905C134.903 62.6829 131.833 63.3292 128.683 63.3292C122.544 63.3292 116.889 60.9059 112.527 56.6247C108.246 52.3435 105.904 46.6083 105.904 40.55C105.904 34.4918 108.246 28.7566 112.527 24.4754C116.889 20.1942 122.544 17.7709 128.683 17.7709C134.741 17.7709 140.476 20.1942 144.758 24.4754C149.039 28.7566 151.381 34.4918 151.381 40.55V46.4468H119.313C121.251 49.5163 124.725 51.6165 128.683 51.6165C131.752 51.6165 134.58 50.4048 136.68 48.1431L145.242 56.2208C143.142 58.4018 140.638 60.1789 137.811 61.3905ZM128.683 29.4836C124.725 29.4836 121.251 31.5838 119.313 34.7341H138.053C136.034 31.5838 132.56 29.4836 128.683 29.4836Z" fill="#FB8E0B"/>
<path d="M178.866 63.0061H193.244L176.846 40.3885L193.082 18.0132H178.462L169.496 30.5337L160.691 18.0132H145.828L162.226 40.3077L145.909 63.0061H160.206L169.576 50.5664L178.866 63.0061Z" fill="#FD6003"/>
</svg>
